# xmcd
#
# Track frame offsets: 
#        150
#        15447
#        32645
#        49062
#        69350
#        80132
#        94560
#        112592
#        130680
#        143322
#        159612
#        175750
#        192070
#        208032
#        223115
#        235142
#        249260
#
# Disc length: 3498 seconds
#
# Revision: 4
# Processed by: cddbd v1.5.2PL0 Copyright (c) Steve Scherf et al.
# Submitted via: ExactAudioCopyFreeDBPlugin 1.0
#
DISCID=d10da811
DTITLE=Ornella Vanoni - Oggi Le Canto Così Vol.2 [Paoli and Tenco and Le C
DTITLE=anzoni Della Mala]
DYEAR=1980
DGENRE=Blues
TTITLE0=Me In Tutto Il Mondo
TTITLE1=Che Cosa C'È
TTITLE2=Senza Fine
TTITLE3=Mi Sono Innamorata Di te
TTITLE4=Il Cielo In Una Stanza
TTITLE5=Vedrai Vedrai
TTITLE6=Ragazzo Mio
TTITLE7=Sassi
TTITLE8=Io Sì
TTITLE9=Lontano Lontano
TTITLE10=Ma Mi
TTITLE11=Le Mantellate
TTITLE12=La Zolfara
TTITLE13=La Sirena
TTITLE14=Hanno Ammazzato Il Mario
TTITLE15=Canto Di Carcerati Calabresi
TTITLE16=La Giava Rossa
EXTD=
EXTT0=
EXTT1=
EXTT2=
EXTT3=
EXTT4=
EXTT5=
EXTT6=
EXTT7=
EXTT8=
EXTT9=
EXTT10=
EXTT11=
EXTT12=
EXTT13=
EXTT14=
EXTT15=
EXTT16=
PLAYORDER=
